<svg width="27" height="28" viewBox="0 0 27 28" fill="none" xmlns="http://www.w3.org/2000/svg">
<path opacity="0.2" d="M13.4249 24.0833C18.891 24.0833 23.322 19.6522 23.322 14.1862C23.322 8.72021 18.891 4.28912 13.4249 4.28912C7.95892 4.28912 3.52783 8.72021 3.52783 14.1862C3.52783 19.6522 7.95892 24.0833 13.4249 24.0833Z" fill="#090909"/>
<path d="M13.4249 24.0833C18.891 24.0833 23.322 19.6522 23.322 14.1862C23.322 8.72021 18.891 4.28912 13.4249 4.28912C7.95892 4.28912 3.52783 8.72021 3.52783 14.1862C3.52783 19.6522 7.95892 24.0833 13.4249 24.0833Z" stroke="#090909" stroke-width="1.64952" stroke-linecap="round" stroke-linejoin="round"/>
<path d="M12.6006 13.3615H13.4253V19.1348H14.2501" stroke="#090909" stroke-width="1.64952" stroke-linecap="round" stroke-linejoin="round"/>
<path d="M13.8375 9.6501C13.8375 9.87785 13.6529 10.0625 13.4251 10.0625C13.1974 10.0625 13.0127 9.87785 13.0127 9.6501C13.0127 9.42235 13.1974 9.23772 13.4251 9.23772C13.6529 9.23772 13.8375 9.42235 13.8375 9.6501Z" fill="#090909" stroke="#090909" stroke-width="1.64952"/>
</svg>
