<svg width="20" height="21" viewBox="0 0 20 21" fill="none" xmlns="http://www.w3.org/2000/svg">
<path d="M13.2637 10.6004C13.2637 11.2185 13.0804 11.8227 12.737 12.3366C12.3936 12.8505 11.9056 13.2511 11.3346 13.4876C10.7635 13.7241 10.1352 13.786 9.52901 13.6654C8.92282 13.5449 8.366 13.2472 7.92896 12.8102C7.49192 12.3731 7.1943 11.8163 7.07372 11.2101C6.95314 10.6039 7.01502 9.97555 7.25155 9.40452C7.48807 8.83349 7.88861 8.34543 8.40251 8.00204C8.91642 7.65865 9.5206 7.47537 10.1387 7.47537C10.9667 7.47795 11.76 7.80802 12.3455 8.39353C12.931 8.97903 13.2611 9.77241 13.2637 10.6004ZM19.9043 6.30348V14.8974C19.9043 16.3478 19.3281 17.7388 18.3025 18.7644C17.2769 19.7901 15.8859 20.3662 14.4355 20.3662H5.8418C4.39139 20.3662 3.0004 19.7901 1.97481 18.7644C0.949217 17.7388 0.373047 16.3478 0.373047 14.8974V6.30348C0.373047 4.85305 0.949217 3.46202 1.97481 2.43641C3.0004 1.41081 4.39139 0.834625 5.8418 0.834625H14.4355C15.8859 0.834625 17.2769 1.41081 18.3025 2.43641C19.3281 3.46202 19.9043 4.85305 19.9043 6.30348ZM14.8262 10.6004C14.8262 9.67331 14.5513 8.76702 14.0362 7.99615C13.5211 7.22528 12.789 6.62446 11.9325 6.26967C11.076 5.91487 10.1335 5.82204 9.22418 6.00291C8.3149 6.18379 7.47967 6.63024 6.82411 7.28581C6.16855 7.94138 5.72211 8.77662 5.54124 9.68593C5.36037 10.5952 5.4532 11.5377 5.80799 12.3943C6.16277 13.2508 6.76358 13.9829 7.53444 14.498C8.30529 15.0131 9.21157 15.288 10.1387 15.288C11.3819 15.288 12.5742 14.7941 13.4532 13.9151C14.3323 13.036 14.8262 11.8437 14.8262 10.6004ZM16.3887 5.52221C16.3887 5.29043 16.3199 5.06386 16.1912 4.87114C16.0624 4.67842 15.8794 4.52822 15.6653 4.43952C15.4511 4.35082 15.2155 4.32761 14.9882 4.37283C14.7609 4.41805 14.552 4.52966 14.3882 4.69356C14.2243 4.85745 14.1127 5.06626 14.0674 5.29359C14.0222 5.52091 14.0454 5.75654 14.1341 5.97068C14.2228 6.18481 14.373 6.36784 14.5657 6.49661C14.7585 6.62538 14.985 6.69411 15.2168 6.69411C15.5276 6.69411 15.8257 6.57064 16.0454 6.35087C16.2652 6.13109 16.3887 5.83302 16.3887 5.52221Z" fill="#080808"/>
</svg>
