<svg width="22" height="21" viewBox="0 0 22 21" fill="none" xmlns="http://www.w3.org/2000/svg">
<path d="M11.1392 0.240936C5.41751 0.240936 0.779297 4.87924 0.779297 10.601C0.779297 16.3228 5.41751 20.9611 11.1392 20.9611C16.8609 20.9611 21.4991 16.3228 21.4991 10.601C21.4991 4.87924 16.8609 0.240936 11.1392 0.240936ZM8.60318 14.8951H6.5053V8.14374H8.60318V14.8951ZM7.54129 7.31494C6.87869 7.31494 6.45026 6.84549 6.45026 6.2649C6.45026 5.67243 6.89164 5.21702 7.56827 5.21702C8.2449 5.21702 8.6593 5.67243 8.67225 6.2649C8.67225 6.84549 8.2449 7.31494 7.54129 7.31494ZM16.2652 14.8951H14.1673V11.1536C14.1673 10.2827 13.863 9.69128 13.1043 9.69128C12.5248 9.69128 12.1806 10.0917 12.0284 10.4769C11.9723 10.614 11.9583 10.8082 11.9583 11.0014V14.894H9.85932V10.2967C9.85932 9.45386 9.83234 8.74916 9.80428 8.14266H11.627L11.723 9.08047H11.7651C12.0414 8.64016 12.718 7.9905 13.85 7.9905C15.2303 7.9905 16.2652 8.91535 16.2652 10.9032V14.8951Z" fill="#080808"/>
</svg>
