<svg width="20" height="20" viewBox="0 0 20 20" fill="none" xmlns="http://www.w3.org/2000/svg">
<path d="M18.0854 0.375H2.01984C1.14199 0.375 0.375 1.00664 0.375 1.87418V17.9754C0.375 18.8477 1.14199 19.625 2.01984 19.625H18.0807C18.9633 19.625 19.625 18.8425 19.625 17.9754V1.87418C19.6302 1.00664 18.9633 0.375 18.0854 0.375ZM6.34207 16.4208H3.58434V7.84641H6.34207V16.4208ZM5.05859 6.54273H5.03883C4.15625 6.54273 3.58477 5.88574 3.58477 5.06332C3.58477 4.22586 4.17129 3.58434 5.07363 3.58434C5.97598 3.58434 6.52813 4.22113 6.54789 5.06332C6.54746 5.88574 5.97598 6.54273 5.05859 6.54273ZM16.4208 16.4208H13.6631V11.7325C13.6631 10.6093 13.2618 9.84188 12.264 9.84188C11.5018 9.84188 11.0506 10.3575 10.8499 10.8598C10.7747 11.0403 10.7545 11.2861 10.7545 11.537V16.4208H7.9968V7.84641H10.7545V9.03965C11.1559 8.46816 11.7828 7.64574 13.2416 7.64574C15.0518 7.64574 16.4212 8.83898 16.4212 11.4115L16.4208 16.4208Z" fill="black"/>
</svg>
