<svg width="15" height="22" viewBox="0 0 15 22" fill="none" xmlns="http://www.w3.org/2000/svg">
<path d="M7.25 0.84375C3.2648 0.84375 0.03125 3.75426 0.03125 7.34063C0.03125 13.1156 7.25 21.0562 7.25 21.0562C7.25 21.0562 14.4688 13.1156 14.4688 7.34063C14.4688 3.75426 11.2352 0.84375 7.25 0.84375ZM7.25 10.95C6.67891 10.95 6.12064 10.7807 5.64579 10.4634C5.17094 10.1461 4.80085 9.69512 4.5823 9.1675C4.36375 8.63988 4.30657 8.0593 4.41798 7.49918C4.5294 6.93906 4.80441 6.42455 5.20823 6.02073C5.61205 5.61691 6.12656 5.3419 6.68668 5.23048C7.2468 5.11907 7.82738 5.17625 8.355 5.3948C8.88262 5.61335 9.33359 5.98344 9.65087 6.45829C9.96815 6.93314 10.1375 7.49141 10.1375 8.0625C10.1367 8.82806 9.83218 9.56202 9.29085 10.1033C8.74952 10.6447 8.01556 10.9492 7.25 10.95Z" fill="#090909"/>
</svg>
