<svg width="22" height="19" viewBox="0 0 22 19" fill="none" xmlns="http://www.w3.org/2000/svg">
<path d="M19.2031 0.90625H2.79688C2.07191 0.907026 1.37686 1.19536 0.864236 1.70799C0.35161 2.22061 0.0632755 2.91566 0.0625 3.64062V15.3594C0.0632755 16.0843 0.35161 16.7794 0.864236 17.292C1.37686 17.8046 2.07191 18.093 2.79688 18.0938H19.2031C19.9281 18.093 20.6231 17.8046 21.1358 17.292C21.6484 16.7794 21.9367 16.0843 21.9375 15.3594V3.64062C21.9367 2.91566 21.6484 2.22061 21.1358 1.70799C20.6231 1.19536 19.9281 0.907026 19.2031 0.90625ZM18.5107 5.4292L11.4795 10.8979C11.3424 11.0045 11.1737 11.0624 11 11.0624C10.8263 11.0624 10.6576 11.0045 10.5205 10.8979L3.48926 5.4292C3.40665 5.36681 3.33726 5.28863 3.28512 5.1992C3.23299 5.10976 3.19915 5.01086 3.18557 4.90823C3.17199 4.80561 3.17894 4.70131 3.20602 4.60139C3.2331 4.50147 3.27977 4.40794 3.34331 4.32621C3.40685 4.24449 3.486 4.17621 3.57616 4.12534C3.66632 4.07447 3.76569 4.04202 3.8685 4.02989C3.9713 4.01775 4.0755 4.02617 4.17502 4.05465C4.27455 4.08314 4.36742 4.13111 4.44824 4.1958L11 9.2915L17.5518 4.1958C17.7156 4.07208 17.9215 4.01782 18.1251 4.04475C18.3286 4.07168 18.5133 4.17764 18.6393 4.33971C18.7653 4.50178 18.8225 4.70694 18.7984 4.91082C18.7744 5.1147 18.671 5.30092 18.5107 5.4292Z" fill="black"/>
</svg>
