<svg width="20" height="18" viewBox="0 0 20 18" fill="none" xmlns="http://www.w3.org/2000/svg">
<path d="M16.5312 0.75H3.46875C2.83113 0.751814 2.22014 1.00591 1.76928 1.45678C1.31841 1.90764 1.06431 2.51863 1.0625 3.15625V11.4062C1.06431 12.0439 1.31841 12.6549 1.76928 13.1057C2.22014 13.5566 2.83113 13.8107 3.46875 13.8125H5.1875V17.25L9.21453 13.8924C9.27637 13.8408 9.35439 13.8125 9.43496 13.8125H16.5312C17.1689 13.8107 17.7799 13.5566 18.2307 13.1057C18.6816 12.6549 18.9357 12.0439 18.9375 11.4062V3.15625C18.9357 2.51863 18.6816 1.90764 18.2307 1.45678C17.7799 1.00591 17.1689 0.751814 16.5312 0.75Z" stroke="black" stroke-width="1.375" stroke-linejoin="round"/>
</svg>
