<svg width="22" height="23" viewBox="0 0 22 23" fill="none" xmlns="http://www.w3.org/2000/svg">
<path d="M17.5929 22.437C16.6397 22.437 15.3009 22.0923 13.296 20.9722C10.858 19.605 8.97226 18.3428 6.54745 15.9244C4.20956 13.5879 3.07187 12.0752 1.47958 9.17777C-0.319248 5.90629 -0.0126075 4.19144 0.330166 3.45853C0.738369 2.58255 1.34091 2.05863 2.11972 1.53861C2.56208 1.24878 3.0302 1.00034 3.51816 0.796422C3.56698 0.775426 3.61239 0.755406 3.65292 0.73734C3.89462 0.628453 4.26083 0.463902 4.7247 0.639684C5.03427 0.755895 5.31064 0.993688 5.74325 1.42093C6.63046 2.29593 7.84286 4.24466 8.29013 5.2017C8.59042 5.84671 8.78915 6.2725 8.78964 6.75004C8.78964 7.30912 8.50839 7.74027 8.16708 8.2056C8.10312 8.293 8.03964 8.3765 7.97812 8.45755C7.60654 8.94584 7.52499 9.08695 7.5787 9.3389C7.68759 9.84525 8.4996 11.3526 9.83408 12.6841C11.1685 14.0157 12.6324 14.7764 13.1407 14.8848C13.4034 14.941 13.5475 14.856 14.0514 14.4712C14.1236 14.416 14.1978 14.3589 14.2755 14.3018C14.796 13.9146 15.2071 13.6407 15.753 13.6407H15.756C16.2311 13.6407 16.6378 13.8467 17.3116 14.1866C18.1905 14.6299 20.1978 15.8267 21.0782 16.7149C21.5064 17.1465 21.7452 17.4219 21.8619 17.731C22.0377 18.1963 21.8722 18.5611 21.7643 18.8052C21.7462 18.8457 21.7262 18.8902 21.7052 18.9395C21.4996 19.4266 21.2497 19.8937 20.9586 20.335C20.4395 21.1114 19.9137 21.7124 19.0357 22.1211C18.5849 22.3344 18.0915 22.4424 17.5929 22.437Z" fill="black"/>
</svg>
