<svg width="18" height="18" viewBox="0 0 18 18" fill="none" xmlns="http://www.w3.org/2000/svg">
<path d="M14.4998 12.4373C14.1294 12.4372 13.7628 12.5121 13.4222 12.6576C13.0816 12.8031 12.774 13.0161 12.518 13.2838L6.15867 9.70582C6.28185 9.24323 6.28185 8.75646 6.15867 8.29387L12.518 4.71586C12.9811 5.19597 13.6034 5.49076 14.2682 5.54502C14.933 5.59927 15.5948 5.40927 16.1296 5.0106C16.6644 4.61192 17.0355 4.03194 17.1734 3.3793C17.3113 2.72666 17.2064 2.04614 16.8786 1.46523C16.5507 0.884329 16.0223 0.442894 15.3923 0.223629C14.7623 0.00436329 14.074 0.022312 13.4563 0.274112C12.8386 0.525913 12.334 0.994287 12.0368 1.59149C11.7397 2.18869 11.6705 2.87375 11.8421 3.51832L5.48277 7.09633C5.1029 6.70026 4.61322 6.4269 4.07672 6.31142C3.54022 6.19594 2.98143 6.24362 2.47225 6.44832C1.96307 6.65303 1.52678 7.0054 1.21951 7.46011C0.912243 7.91481 0.748047 8.45105 0.748047 8.99984C0.748047 9.54863 0.912243 10.0849 1.21951 10.5396C1.52678 10.9943 1.96307 11.3467 2.47225 11.5514C2.98143 11.7561 3.54022 11.8037 4.07672 11.6883C4.61322 11.5728 5.1029 11.2994 5.48277 10.9034L11.8421 14.4814C11.6947 15.0365 11.7248 15.6238 11.9281 16.1609C12.1314 16.6981 12.4979 17.1581 12.9759 17.4764C13.454 17.7947 14.0198 17.9553 14.5938 17.9357C15.1678 17.9162 15.7213 17.7173 16.1765 17.3672C16.6318 17.017 16.966 16.5331 17.1323 15.9833C17.2985 15.4336 17.2885 14.8456 17.1035 14.3018C16.9186 13.7581 16.568 13.2859 16.101 12.9515C15.6341 12.6171 15.0741 12.4373 14.4998 12.4373Z" fill="black"/>
</svg>
