<svg width="22" height="18" viewBox="0 0 22 18" fill="none" xmlns="http://www.w3.org/2000/svg">
<path d="M21.3125 2.70509C20.5388 3.04125 19.7202 3.26273 18.8826 3.36251C19.7629 2.84705 20.4249 2.02814 20.7445 1.05938C19.9122 1.54604 19.0032 1.88751 18.0563 2.06915C17.6576 1.65129 17.1781 1.31887 16.6469 1.0921C16.1157 0.865329 15.544 0.74894 14.9664 0.750007C12.6281 0.750007 10.7357 2.61485 10.7357 4.91368C10.7341 5.23344 10.7707 5.55224 10.8449 5.86329C9.16811 5.78468 7.5262 5.35694 6.02421 4.60742C4.52222 3.85791 3.19322 2.80312 2.12223 1.51055C1.7465 2.14397 1.54779 2.86667 1.54688 3.60313C1.54688 5.04688 2.30012 6.32305 3.4375 7.07071C2.76363 7.05472 2.10357 6.87636 1.51336 6.55079V6.60235C1.51336 8.62188 2.9743 10.302 4.90789 10.6844C4.54428 10.7813 4.16959 10.8304 3.79328 10.8305C3.52626 10.8309 3.25985 10.805 2.99793 10.7531C3.53547 12.4074 5.09996 13.6106 6.9532 13.6449C5.44731 14.8055 3.59847 15.4327 1.69727 15.4281C1.3598 15.4276 1.02264 15.4075 0.6875 15.368C2.6216 16.603 4.86984 17.2563 7.16461 17.25C14.9574 17.25 19.2148 10.9035 19.2148 5.39923C19.2148 5.21876 19.21 5.03829 19.2014 4.86212C20.0278 4.27433 20.7426 3.54388 21.3125 2.70509Z" fill="black"/>
</svg>
