<svg width="82" height="82" viewBox="0 0 82 82" fill="none" xmlns="http://www.w3.org/2000/svg">
<path d="M40.8796 0C18.4228 0 0.152344 18.2705 0.152344 40.7273C0.152344 63.1841 18.4228 81.4545 40.8796 81.4545C63.3364 81.4545 81.6069 63.1841 81.6069 40.7273C81.6069 18.2705 63.3364 0 40.8796 0ZM55.5199 42.5482L33.1101 56.0862C32.7889 56.2786 32.4223 56.3821 32.0478 56.3861C31.6734 56.3901 31.3047 56.2944 30.9794 56.1089C30.6542 55.9233 30.3841 55.6546 30.197 55.3303C30.0099 55.0059 29.9124 54.6377 29.9146 54.2632V27.1913C29.9124 26.8169 30.0099 26.4486 30.197 26.1243C30.3841 25.7999 30.6542 25.5312 30.9794 25.3457C31.3047 25.1601 31.6734 25.0644 32.0478 25.0684C32.4223 25.0724 32.7889 25.1759 33.1101 25.3684L55.5199 38.9063C55.8323 39.0966 56.0904 39.3641 56.2696 39.683C56.4487 40.0019 56.5428 40.3615 56.5428 40.7273C56.5428 41.093 56.4487 41.4527 56.2696 41.7716C56.0904 42.0905 55.8323 42.3579 55.5199 42.5482Z" fill="white"/>
</svg>
