<svg width="1877" height="1878" viewBox="0 0 1877 1878" fill="none" xmlns="http://www.w3.org/2000/svg">
<g clip-path="url(#clip0_31_22)">
<path d="M563.1 563.6L613.822 526.967C597.932 504.968 569.672 495.719 543.851 504.068C518.028 512.418 500.533 536.462 500.533 563.6H563.1ZM938.5 1752.37C489.29 1752.37 125.133 1388.22 125.133 939H0C0 1457.31 420.18 1877.5 938.5 1877.5V1752.37ZM1751.87 939C1751.87 1388.22 1387.72 1752.37 938.5 1752.37V1877.5C1456.81 1877.5 1877 1457.31 1877 939H1751.87ZM938.5 125.633C1387.72 125.633 1751.87 489.79 1751.87 939H1877C1877 420.68 1456.81 0.5 938.5 0.5V125.633ZM938.5 0.5C420.18 0.5 0 420.68 0 939H125.133C125.133 489.79 489.29 125.633 938.5 125.633V0.5ZM625.667 1502.1V563.6H500.533V1502.1H625.667ZM512.378 600.233L1325.75 1726.43L1427.18 1653.17L613.822 526.967L512.378 600.233ZM1251.33 501.033V1251.83H1376.47V501.033H1251.33Z" fill="black"/>
</g>
<defs>
<clipPath id="clip0_31_22">
<rect width="1877" height="1877" fill="white" transform="translate(0 0.5)"/>
</clipPath>
</defs>
</svg>
