<svg id="Capa_1" enable-background="new 0 0 512 512" height="512" viewBox="0 0 512 512" width="512" xmlns="http://www.w3.org/2000/svg"><g><path d="m456.555 511.932h-401.245c-30.547 0-55.31-24.762-55.31-55.31v-401.244c0-30.548 24.763-55.311 55.31-55.311h401.245c30.547 0 55.31 24.763 55.31 55.31v401.245c0 30.548-24.763 55.31-55.31 55.31z"/><path d="m139.547 110.882h233.549c15.654 0 28.343 12.69 28.343 28.343v233.549c0 15.654-12.69 28.343-28.343 28.343h-233.549c-15.654 0-28.343-12.69-28.343-28.343v-233.549c0-15.653 12.689-28.343 28.343-28.343" fill="#fff"/><path clip-rule="evenodd" d="m290.866 341.837v28.378c4.613 2.365 10.07 4.138 16.369 5.32s12.937 1.773 19.916 1.773c6.801 0 13.262-.65 19.384-1.95 6.121-1.3 11.489-3.444 16.102-6.43s8.265-6.887 10.957-11.705c2.69-4.819 4.036-10.775 4.036-17.869 0-5.144-.768-9.651-2.306-13.523s-3.756-7.316-6.653-10.331c-2.898-3.016-6.373-5.721-10.425-8.114-4.051-2.395-8.621-4.656-13.706-6.784-6.023-2.485-12.268-5.056-17.566-8.911-2.418-1.76-4.894-4.131-5.89-7.021-.985-2.857-.725-6.2.922-8.764 4.115-6.408 12.913-7.582 19.871-7.582 5.206 0 10.426.781 15.438 2.172 5.204 1.445 10.279 3.609 14.727 6.695v-26.516c-4.318-1.655-9.035-2.881-14.151-3.68s-10.986-1.197-17.61-1.197c-6.743 0-13.13.724-19.163 2.172s-11.341 3.711-15.925 6.784c-4.584 3.075-8.206 6.99-10.867 11.75-2.661 4.759-3.993 10.449-3.993 17.071 0 8.454 2.439 15.668 7.319 21.639 4.879 5.97 12.286 11.025 22.223 15.164 3.903 1.596 7.541 3.162 10.912 4.7 6.731 3.07 16.393 7.916 16.673 16.486.004.121.006.242.006.363 0 6.848-6.212 10.457-12.11 11.882-2.691.651-5.841.976-9.449.976-6.151 0-12.242-1.078-18.276-3.237-6.031-2.158-11.62-5.395-16.765-9.711zm-47.708-69.919h36.404v-23.288h-101.468v23.288h36.226v103.69h28.839v-103.69z" fill-rule="evenodd"/></g></svg>